<?xml version="1.0" encoding="UTF-8" standalone="no"?>
<!DOCTYPE svg PUBLIC "-//W3C//DTD SVG 1.1//EN" "http://www.w3.org/Graphics/SVG/1.1/DTD/svg11.dtd">
<svg width="100%" height="100%" viewBox="0 0 745 754" version="1.1" xmlns="http://www.w3.org/2000/svg" xmlns:xlink="http://www.w3.org/1999/xlink" xml:space="preserve" xmlns:serif="http://www.serif.com/" style="fill-rule:evenodd;clip-rule:evenodd;stroke-linejoin:round;stroke-miterlimit:2;">
    <g transform="matrix(1,0,0,1,-8206.75,-3924.98)">
        <g transform="matrix(3.74968,0,0,3.17497,5603.74,2684.51)">
            <path d="M694.412,460.497L694.195,390.704C694.195,390.704 713.183,391.347 734.567,392.066L734.567,460.497L694.412,460.497ZM883.011,460.497L746.957,460.497L746.957,392.481C770.223,393.26 792.604,394 793.636,394C833.003,394 867.037,421.177 883.011,460.497ZM888.64,544.248L837.688,544.248L837.688,474.456L887.768,474.456C890.971,485.956 892.704,498.241 892.704,511C892.704,522.548 891.284,533.708 888.64,544.248ZM788.833,627.841L788.833,558.207L884.297,558.207C868.919,599.297 834.094,628 793.636,628C793.367,628 791.645,627.942 788.833,627.841ZM694.413,558.207L774.875,558.207L774.875,627.321C746.041,626.23 694.195,624.21 694.195,624.21L694.413,558.207ZM694.455,474.456L825.652,474.456L825.652,544.248L694.459,544.248L694.569,511L694.455,474.456Z" style="fill:rgb(38,102,74);"/>
        </g>
    </g>
</svg>
